# xmcd
#
# Track frame offsets: 
#        183
#        20345
#        32120
#        43688
#        56680
#        68043
#        81933
#        99418
#        112020
#        126238
#        138103
#        155258
#        174050
#        189505
#        204585
#        220433
#        235615
#        249345
#        264493
#
# Disc length: 3765 seconds
#
# Revision: 1
# Processed by: cddbd v1.5.2PL0 Copyright (c) Steve Scherf et al.
# Submitted via: ExactAudioCopy v1.0b3
#
DISCID=000eb313
DTITLE=Serge Lama - 60 Minutes de Musique
DYEAR=1977
DGENRE=Chanson
TTITLE0=La vie Lilas
TTITLE1=Superman
TTITLE2=Les Glycines
TTITLE3=L'enfant d'un autre
TTITLE4=Les p'tites femmes de Pigalle
TTITLE5=Mon amie, mon maitre
TTITLE6=L'Algerie
TTITLE7=Charivarivari
TTITLE8=Une île
TTITLE9=Les portes de l'Atlantique
TTITLE10=Chez moi
TTITLE11=Je suis malade
TTITLE12=La braconne
TTITLE13=Le chanteur
TTITLE14=D'aventures en aventures
TTITLE15=La chanteuse a 20 ans
TTITLE16=Le temps de la rengaine
TTITLE17=L'enfant au piano
TTITLE18=Je t'aime à la folie
EXTD=
EXTT0=
EXTT1=
EXTT2=
EXTT3=
EXTT4=
EXTT5=
EXTT6=
EXTT7=
EXTT8=
EXTT9=
EXTT10=
EXTT11=
EXTT12=
EXTT13=
EXTT14=
EXTT15=
EXTT16=
EXTT17=
EXTT18=
PLAYORDER=
